<?xml version="1.0" encoding="UTF-8" standalone="no"?>
<!-- Created with Inkscape (http://www.inkscape.org/) -->

<svg
   xmlns:dc="http://purl.org/dc/elements/1.1/"
   xmlns:cc="http://creativecommons.org/ns#"
   xmlns:rdf="http://www.w3.org/1999/02/22-rdf-syntax-ns#"
   xmlns:svg="http://www.w3.org/2000/svg"
   xmlns="http://www.w3.org/2000/svg"
   xmlns:xlink="http://www.w3.org/1999/xlink"
   xmlns:sodipodi="http://sodipodi.sourceforge.net/DTD/sodipodi-0.dtd"
   xmlns:inkscape="http://www.inkscape.org/namespaces/inkscape"
   width="48px"
   height="48px"
   id="svg3085"
   version="1.1"
   inkscape:version="0.91 r13725"
   sodipodi:docname="quiz-runner.svg">
  <defs
     id="defs3087">
    <inkscape:perspective
       sodipodi:type="inkscape:persp3d"
       inkscape:vp_x="0 : 24 : 1"
       inkscape:vp_y="0 : 1000 : 0"
       inkscape:vp_z="48 : 24 : 1"
       inkscape:persp3d-origin="24 : 16 : 1"
       id="perspective3093" />
    <inkscape:perspective
       id="perspective3254"
       inkscape:persp3d-origin="0.5 : 0.33333333 : 1"
       inkscape:vp_z="1 : 0.5 : 1"
       inkscape:vp_y="0 : 1000 : 0"
       inkscape:vp_x="0 : 0.5 : 1"
       sodipodi:type="inkscape:persp3d" />
    <linearGradient
       inkscape:collect="always"
       id="linearGradient10239">
      <stop
         style="stop-color:#000000;stop-opacity:1;"
         offset="0"
         id="stop10241" />
      <stop
         style="stop-color:#000000;stop-opacity:0;"
         offset="1"
         id="stop10243" />
    </linearGradient>
    <linearGradient
       inkscape:collect="always"
       xlink:href="#linearGradient10193"
       id="linearGradient10419"
       x1="303.87363"
       y1="139.96452"
       x2="304.93591"
       y2="157.13467"
       gradientUnits="userSpaceOnUse" />
    <linearGradient
       inkscape:collect="always"
       id="linearGradient10193">
      <stop
         style="stop-color:#ffffff;stop-opacity:1;"
         offset="0"
         id="stop10195" />
      <stop
         style="stop-color:#ffffff;stop-opacity:0;"
         offset="1"
         id="stop10197" />
    </linearGradient>
    <radialGradient
       inkscape:collect="always"
       xlink:href="#linearGradient10239"
       id="radialGradient10421"
       gradientUnits="userSpaceOnUse"
       gradientTransform="matrix(1,0,0,0.1531531,0,172.42861)"
       cx="307.2821"
       cy="203.6125"
       fx="306.28568"
       fy="203.6125"
       r="4.9055533" />
  </defs>
  <sodipodi:namedview
     id="base"
     pagecolor="#ffffff"
     bordercolor="#666666"
     borderopacity="1.0"
     inkscape:pageopacity="0.0"
     inkscape:pageshadow="2"
     inkscape:zoom="8"
     inkscape:cx="20.415426"
     inkscape:cy="26.407562"
     inkscape:current-layer="text9426"
     showgrid="true"
     inkscape:grid-bbox="true"
     inkscape:document-units="px"
     inkscape:window-width="1920"
     inkscape:window-height="1016"
     inkscape:window-x="0"
     inkscape:window-y="27"
     inkscape:window-maximized="1"
     showguides="true"
     inkscape:guide-bbox="true" />
  <metadata
     id="metadata3090">
    <rdf:RDF>
      <cc:Work
         rdf:about="">
        <dc:format>image/svg+xml</dc:format>
        <dc:type
           rdf:resource="http://purl.org/dc/dcmitype/StillImage" />
        <dc:title />
      </cc:Work>
    </rdf:RDF>
  </metadata>
  <g
     id="layer1"
     inkscape:label="Layer 1"
     inkscape:groupmode="layer">
    <g
       id="g3383"
       transform="matrix(1.3752861,0,0,1.3752861,2.9418277,-15.527669)">
      <g
         transform="matrix(1.5596695,0,0,1.5117195,-461.94418,-194.99476)"
         id="g10351"
         style="display:inline;fill:#990000;fill-opacity:1">
        <path
           style="display:inline;overflow:visible;visibility:visible;fill:#990000;fill-opacity:1;fill-rule:nonzero;stroke:#8a7d77;stroke-width:0.71932566;stroke-linecap:round;stroke-linejoin:round;stroke-miterlimit:4;stroke-dashoffset:0;stroke-opacity:1;marker:none;enable-background:accumulate"
           d="m 314.49636,145.80968 c 0,4.03288 -3.80071,7.30645 -8.49818,7.30645 l -5.66545,4.38387 0.70818,-5.84516 c -2.11647,-1.32947 -3.54091,-3.42285 -3.54091,-5.84516 0,-4.03288 3.81244,-7.3074 8.5099,-7.3074 4.69747,0 8.48646,3.27452 8.48646,7.3074 z"
           id="path10353"
           sodipodi:nodetypes="ccccssc"
           inkscape:connector-curvature="0" />
        <path
           d="m 306,139.22656 c -4.3591,0 -7.77344,3.01002 -7.77344,6.58594 0,2.13925 1.24223,4.00413 3.19141,5.22852 a 0.72702674,0.72702674 0 0 1 0.33594,0.69921 l -0.48633,4.125 4.28711,-3.31445 A 0.72702674,0.72702674 0 0 1 306,152.39844 c 4.35911,0 7.77343,-3.01001 7.77344,-6.58594 0,-3.57593 -3.41431,-6.58593 -7.77344,-6.58594 z"
           id="path10409"
           style="display:inline;overflow:visible;visibility:visible;fill:#990000;stroke:url(#linearGradient10419);stroke-width:0.71932554;stroke-linecap:round;stroke-linejoin:miter;stroke-miterlimit:4;stroke-dasharray:none;stroke-dashoffset:0;stroke-opacity:1;marker:none;enable-background:accumulate;fill-opacity:1"
           inkscape:original="M 306 138.5 C 301.30254 138.5 297.5 141.77962 297.5 145.8125 C 297.5 148.23481 298.91477 150.32677 301.03125 151.65625 L 300.34375 157.5 L 306 153.125 C 310.69747 153.125 314.49999 149.84538 314.5 145.8125 C 314.5 141.77962 310.69748 138.50001 306 138.5 z "
           inkscape:radius="-0.72695404"
           sodipodi:type="inkscape:offset" />
      </g>
      <g
         style="display:inline;opacity:0.8;fill:#ffffff"
         id="g9434"
         transform="matrix(1.1045297,0,0,1.1045297,-328.58852,-64.897492)">
        <g
           transform="scale(1.025818,0.97483179)"
           style="font-style:normal;font-variant:normal;font-weight:bold;font-stretch:normal;font-size:15.82506943px;font-family:FreeSans;-inkscape-font-specification:'FreeSans Bold';text-align:center;text-anchor:middle;fill:#ffffff;fill-opacity:1;stroke:none"
           id="text9426">
          <path
             d="m 301.82124,80.08878 c 0,-0.493731 0.65831,-0.888716 1.5964,-0.888716 0.93809,0 1.56348,0.93809 1.56348,2.007841 0,0.773513 -0.24686,1.250787 -0.90517,1.859722 -1.06975,0.971005 -1.15204,1.942011 -1.15204,2.649692 l 0,0.757055 c 0,0.115204 0.13166,0.164577 0.26332,0.164577 0.13166,0 0.27978,-0.04937 0.27978,-0.164577 l 0,-0.724139 c 0,-0.394985 0.0165,-0.789971 0.23041,-1.201414 0.14812,-0.279781 0.47727,-0.543104 0.8558,-0.822885 0.77351,-0.559563 1.79389,-1.283702 1.79389,-2.583862 0,-1.497652 -1.08621,-2.485115 -2.76489,-2.485115 -0.87226,0 -1.56349,0.230408 -2.04076,0.641851 -0.49373,0.394985 -0.83934,0.855801 -0.83934,1.481195 0,0.57602 0.41144,0.707681 0.67476,0.707681 0.3127,0 0.64185,-0.197492 0.64185,-0.57602 0,-0.21395 -0.0329,-0.312696 -0.0987,-0.394985 -0.0658,-0.08229 -0.0987,-0.181035 -0.0987,-0.427901 z m 0.49373,8.706132 c 0,0.477274 0.39499,0.872259 0.87226,0.872259 0.47727,0 0.87226,-0.394985 0.87226,-0.872259 0,-0.477274 -0.39499,-0.872259 -0.87226,-0.872259 -0.47727,0 -0.87226,0.394985 -0.87226,0.872259 z"
             style="font-style:normal;font-variant:normal;font-weight:normal;font-stretch:normal;font-size:16.45771599px;font-family:'Linux Libertine O';-inkscape-font-specification:'Linux Libertine O';fill:#ffffff"
             id="path3359" />
        </g>
      </g>
    </g>
  </g>
</svg>
